<svg id="mermaid-1765117305920-wau8onq9y" width="100%" xmlns="http://www.w3.org/2000/svg" class="classDiagram" style="max-width: 1069.175048828125px;" viewBox="0 -48 1069.175048828125 767" role="graphics-document document" aria-roledescription="class"><style>#mermaid-1765117305920-wau8onq9y{font-family:"trebuchet ms",verdana,arial,sans-serif;font-size:16px;fill:#333;}@keyframes edge-animation-frame{from{stroke-dashoffset:0;}}@keyframes dash{to{stroke-dashoffset:0;}}#mermaid-1765117305920-wau8onq9y .edge-animation-slow{stroke-dasharray:9,5!important;stroke-dashoffset:900;animation:dash 50s linear infinite;stroke-linecap:round;}#mermaid-1765117305920-wau8onq9y .edge-animation-fast{stroke-dasharray:9,5!important;stroke-dashoffset:900;animation:dash 20s linear infinite;stroke-linecap:round;}#mermaid-1765117305920-wau8onq9y .error-icon{fill:#552222;}#mermaid-1765117305920-wau8onq9y .error-text{fill:#552222;stroke:#552222;}#mermaid-1765117305920-wau8onq9y .edge-thickness-normal{stroke-width:1px;}#mermaid-1765117305920-wau8onq9y .edge-thickness-thick{stroke-width:3.5px;}#mermaid-1765117305920-wau8onq9y .edge-pattern-solid{stroke-dasharray:0;}#mermaid-1765117305920-wau8onq9y .edge-thickness-invisible{stroke-width:0;fill:none;}#mermaid-1765117305920-wau8onq9y .edge-pattern-dashed{stroke-dasharray:3;}#mermaid-1765117305920-wau8onq9y .edge-pattern-dotted{stroke-dasharray:2;}#mermaid-1765117305920-wau8onq9y .marker{fill:#333333;stroke:#333333;}#mermaid-1765117305920-wau8onq9y .marker.cross{stroke:#333333;}#mermaid-1765117305920-wau8onq9y svg{font-family:"trebuchet ms",verdana,arial,sans-serif;font-size:16px;}#mermaid-1765117305920-wau8onq9y p{margin:0;}#mermaid-1765117305920-wau8onq9y g.classGroup text{fill:#9370DB;stroke:none;font-family:"trebuchet ms",verdana,arial,sans-serif;font-size:10px;}#mermaid-1765117305920-wau8onq9y g.classGroup text .title{font-weight:bolder;}#mermaid-1765117305920-wau8onq9y .nodeLabel,#mermaid-1765117305920-wau8onq9y .edgeLabel{color:#131300;}#mermaid-1765117305920-wau8onq9y .edgeLabel .label rect{fill:#ECECFF;}#mermaid-1765117305920-wau8onq9y .label text{fill:#131300;}#mermaid-1765117305920-wau8onq9y .labelBkg{background:#ECECFF;}#mermaid-1765117305920-wau8onq9y .edgeLabel .label span{background:#ECECFF;}#mermaid-1765117305920-wau8onq9y .classTitle{font-weight:bolder;}#mermaid-1765117305920-wau8onq9y .node rect,#mermaid-1765117305920-wau8onq9y .node circle,#mermaid-1765117305920-wau8onq9y .node ellipse,#mermaid-1765117305920-wau8onq9y .node polygon,#mermaid-1765117305920-wau8onq9y .node path{fill:#ECECFF;stroke:#9370DB;stroke-width:1px;}#mermaid-1765117305920-wau8onq9y .divider{stroke:#9370DB;stroke-width:1;}#mermaid-1765117305920-wau8onq9y g.clickable{cursor:pointer;}#mermaid-1765117305920-wau8onq9y g.classGroup rect{fill:#ECECFF;stroke:#9370DB;}#mermaid-1765117305920-wau8onq9y g.classGroup line{stroke:#9370DB;stroke-width:1;}#mermaid-1765117305920-wau8onq9y .classLabel .box{stroke:none;stroke-width:0;fill:#ECECFF;opacity:0.5;}#mermaid-1765117305920-wau8onq9y .classLabel .label{fill:#9370DB;font-size:10px;}#mermaid-1765117305920-wau8onq9y .relation{stroke:#333333;stroke-width:1;fill:none;}#mermaid-1765117305920-wau8onq9y .dashed-line{stroke-dasharray:3;}#mermaid-1765117305920-wau8onq9y .dotted-line{stroke-dasharray:1 2;}#mermaid-1765117305920-wau8onq9y #compositionStart,#mermaid-1765117305920-wau8onq9y .composition{fill:#333333!important;stroke:#333333!important;stroke-width:1;}#mermaid-1765117305920-wau8onq9y #compositionEnd,#mermaid-1765117305920-wau8onq9y .composition{fill:#333333!important;stroke:#333333!important;stroke-width:1;}#mermaid-1765117305920-wau8onq9y #dependencyStart,#mermaid-1765117305920-wau8onq9y .dependency{fill:#333333!important;stroke:#333333!important;stroke-width:1;}#mermaid-1765117305920-wau8onq9y #dependencyStart,#mermaid-1765117305920-wau8onq9y .dependency{fill:#333333!important;stroke:#333333!important;stroke-width:1;}#mermaid-1765117305920-wau8onq9y #extensionStart,#mermaid-1765117305920-wau8onq9y .extension{fill:transparent!important;stroke:#333333!important;stroke-width:1;}#mermaid-1765117305920-wau8onq9y #extensionEnd,#mermaid-1765117305920-wau8onq9y .extension{fill:transparent!important;stroke:#333333!important;stroke-width:1;}#mermaid-1765117305920-wau8onq9y #aggregationStart,#mermaid-1765117305920-wau8onq9y .aggregation{fill:transparent!important;stroke:#333333!important;stroke-width:1;}#mermaid-1765117305920-wau8onq9y #aggregationEnd,#mermaid-1765117305920-wau8onq9y .aggregation{fill:transparent!important;stroke:#333333!important;stroke-width:1;}#mermaid-1765117305920-wau8onq9y #lollipopStart,#mermaid-1765117305920-wau8onq9y .lollipop{fill:#ECECFF!important;stroke:#333333!important;stroke-width:1;}#mermaid-1765117305920-wau8onq9y #lollipopEnd,#mermaid-1765117305920-wau8onq9y .lollipop{fill:#ECECFF!important;stroke:#333333!important;stroke-width:1;}#mermaid-1765117305920-wau8onq9y .edgeTerminals{font-size:11px;line-height:initial;}#mermaid-1765117305920-wau8onq9y .classTitleText{text-anchor:middle;font-size:18px;fill:#333;}#mermaid-1765117305920-wau8onq9y .label-icon{display:inline-block;height:1em;overflow:visible;vertical-align:-0.125em;}#mermaid-1765117305920-wau8onq9y .node .label-icon path{fill:currentColor;stroke:revert;stroke-width:revert;}#mermaid-1765117305920-wau8onq9y :root{--mermaid-font-family:"trebuchet ms",verdana,arial,sans-serif;}</style><g><defs><marker id="mermaid-1765117305920-wau8onq9y_class-aggregationStart" class="marker aggregation class" refX="18" refY="7" markerWidth="190" markerHeight="240" orient="auto"><path d="M 18,7 L9,13 L1,7 L9,1 Z"></path></marker></defs><defs><marker id="mermaid-1765117305920-wau8onq9y_class-aggregationEnd" class="marker aggregation class" refX="1" refY="7" markerWidth="20" markerHeight="28" orient="auto"><path d="M 18,7 L9,13 L1,7 L9,1 Z"></path></marker></defs><defs><marker id="mermaid-1765117305920-wau8onq9y_class-extensionStart" class="marker extension class" refX="18" refY="7" markerWidth="190" markerHeight="240" orient="auto"><path d="M 1,7 L18,13 V 1 Z"></path></marker></defs><defs><marker id="mermaid-1765117305920-wau8onq9y_class-extensionEnd" class="marker extension class" refX="1" refY="7" markerWidth="20" markerHeight="28" orient="auto"><path d="M 1,1 V 13 L18,7 Z"></path></marker></defs><defs><marker id="mermaid-1765117305920-wau8onq9y_class-compositionStart" class="marker composition class" refX="18" refY="7" markerWidth="190" markerHeight="240" orient="auto"><path d="M 18,7 L9,13 L1,7 L9,1 Z"></path></marker></defs><defs><marker id="mermaid-1765117305920-wau8onq9y_class-compositionEnd" class="marker composition class" refX="1" refY="7" markerWidth="20" markerHeight="28" orient="auto"><path d="M 18,7 L9,13 L1,7 L9,1 Z"></path></marker></defs><defs><marker id="mermaid-1765117305920-wau8onq9y_class-dependencyStart" class="marker dependency class" refX="6" refY="7" markerWidth="190" markerHeight="240" orient="auto"><path d="M 5,7 L9,13 L1,7 L9,1 Z"></path></marker></defs><defs><marker id="mermaid-1765117305920-wau8onq9y_class-dependencyEnd" class="marker dependency class" refX="13" refY="7" markerWidth="20" markerHeight="28" orient="auto"><path d="M 18,7 L9,13 L14,7 L9,1 Z"></path></marker></defs><defs><marker id="mermaid-1765117305920-wau8onq9y_class-lollipopStart" class="marker lollipop class" refX="13" refY="7" markerWidth="190" markerHeight="240" orient="auto"><circle stroke="black" fill="transparent" cx="7" cy="7" r="6"></circle></marker></defs><defs><marker id="mermaid-1765117305920-wau8onq9y_class-lollipopEnd" class="marker lollipop class" refX="1" refY="7" markerWidth="190" markerHeight="240" orient="auto"><circle stroke="black" fill="transparent" cx="7" cy="7" r="6"></circle></marker></defs><g class="root"><g class="clusters"><g class="cluster undefined" id="api" data-look="classic"><rect style="fill:none !important;stroke:black !important" x="8" y="8" width="511.75" height="703"></rect><g class="cluster-label " transform="translate(252.93333435058594, 8)"><foreignObject width="21.883331298828125" height="24"><div style="display: table-cell; white-space: nowrap; line-height: 1.5; max-width: 200px; text-align: center;" xmlns="http://www.w3.org/1999/xhtml"><span class="nodeLabel "><p>api</p></span></div></foreignObject></g></g><g class="cluster undefined" id="simulation" data-look="classic"><rect style="fill:none !important;stroke:black !important" x="539.75" y="251" width="521.4249877929688" height="460"></rect><g class="cluster-label " transform="translate(763.2374954223633, 251)"><foreignObject width="74.44999694824219" height="24"><div style="display: table-cell; white-space: nowrap; line-height: 1.5; max-width: 200px; text-align: center;" xmlns="http://www.w3.org/1999/xhtml"><span class="nodeLabel "><p>simulation</p></span></div></foreignObject></g></g></g><g class="edgePaths"><path d="M895.952,276L900.096,271.833C904.241,267.667,912.53,259.333,916.674,251C920.819,242.667,920.819,234.333,920.819,220C920.819,205.667,920.819,185.333,920.819,175.167L920.819,165" id="id_FileSensorAPI_JsonReader_1" class=" edge-thickness-normal edge-pattern-solid relation" style="" marker-end="url(#mermaid-1765117305920-wau8onq9y_class-dependencyEnd)"></path><path d="M712.907,276L709.107,271.833C705.307,267.667,697.707,259.333,633.345,251C568.983,242.667,447.859,234.333,383.523,226.679C319.188,219.024,311.64,212.048,307.866,208.56L304.092,205.072" id="id_FileSensorAPI_RoomOccupancy_2" class=" edge-thickness-normal edge-pattern-dashed relation" style="" marker-end="url(#mermaid-1765117305920-wau8onq9y_class-dependencyEnd)"></path><path d="M358.244,514.783L362.172,511.152C366.1,507.522,373.956,500.261,410.041,487.337C446.125,474.412,510.438,455.824,542.594,446.53L574.75,437.236" id="id_SensorAPI_FileSensorAPI_3" class=" edge-thickness-normal edge-pattern-dashed relation" style="" marker-start="url(#mermaid-1765117305920-wau8onq9y_class-extensionStart)"></path><path d="M182.725,527L176.594,521.333C170.463,515.667,158.2,504.333,152.069,478.5C145.938,452.667,145.938,412.333,145.938,372C145.938,331.667,145.938,291.333,145.938,267C145.938,242.667,145.938,234.333,147.841,226.866C149.744,219.399,153.551,212.798,155.454,209.498L157.358,206.198" id="id_SensorAPI_RoomOccupancy_4" class=" edge-thickness-normal edge-pattern-dashed relation" style="" marker-end="url(#mermaid-1765117305920-wau8onq9y_class-dependencyEnd)"></path><path d="M800.462,500L800.462,498.833C800.462,497.667,800.462,495.333,800.462,490C800.462,484.667,800.462,476.333,800.462,472.167L800.462,468" id="id_SensorEntry_FileSensorAPI_5" class=" edge-thickness-normal edge-pattern-dashed relation" style="" marker-start="url(#mermaid-1765117305920-wau8onq9y_class-compositionStart)"></path></g><g class="edgeLabels"><g class="edgeLabel"><g class="label" transform="translate(0, -12)"><foreignObject width="0" height="24"><div style="display: table-cell; white-space: nowrap; line-height: 1.5; max-width: 200px; text-align: center;" xmlns="http://www.w3.org/1999/xhtml" class="labelBkg"><span style=";display: inline-block" class="edgeLabel "></span></div></foreignObject></g></g><g class="edgeLabel"><g class="label" transform="translate(0, -12)"><foreignObject width="0" height="24"><div style="display: table-cell; white-space: nowrap; line-height: 1.5; max-width: 200px; text-align: center;" xmlns="http://www.w3.org/1999/xhtml" class="labelBkg"><span style=";display: inline-block" class="edgeLabel "></span></div></foreignObject></g></g><g class="edgeLabel"><g class="label" transform="translate(0, -12)"><foreignObject width="0" height="24"><div style="display: table-cell; white-space: nowrap; line-height: 1.5; max-width: 200px; text-align: center;" xmlns="http://www.w3.org/1999/xhtml" class="labelBkg"><span style=";display: inline-block" class="edgeLabel "></span></div></foreignObject></g></g><g class="edgeLabel"><g class="label" transform="translate(0, -12)"><foreignObject width="0" height="24"><div style="display: table-cell; white-space: nowrap; line-height: 1.5; max-width: 200px; text-align: center;" xmlns="http://www.w3.org/1999/xhtml" class="labelBkg"><span style=";display: inline-block" class="edgeLabel "></span></div></foreignObject></g></g><g class="edgeLabel"><g class="label" transform="translate(0, -12)"><foreignObject width="0" height="24"><div style="display: table-cell; white-space: nowrap; line-height: 1.5; max-width: 200px; text-align: center;" xmlns="http://www.w3.org/1999/xhtml" class="labelBkg"><span style=";display: inline-block" class="edgeLabel "></span></div></foreignObject></g></g></g><g class="nodes"><g class="node default " id="classId-RoomOccupancy-119" transform="translate(208.79792022705078, 117)"><g class="basic label-container"><path d="M-110.72084045410156 -84 L110.72084045410156 -84 L110.72084045410156 84 L-110.72084045410156 84" stroke="none" stroke-width="0" fill="#ECECFF" style=""></path><path d="M-110.72084045410156 -84 C-52.58888467825541 -84, 5.54307109759074 -84, 110.72084045410156 -84 M-110.72084045410156 -84 C-56.67106072060349 -84, -2.621280987105422 -84, 110.72084045410156 -84 M110.72084045410156 -84 C110.72084045410156 -34.66044062050015, 110.72084045410156 14.679118758999707, 110.72084045410156 84 M110.72084045410156 -84 C110.72084045410156 -48.6302775476016, 110.72084045410156 -13.260555095203202, 110.72084045410156 84 M110.72084045410156 84 C28.788749773461333 84, -53.143340907178896 84, -110.72084045410156 84 M110.72084045410156 84 C29.578582897117144 84, -51.563674659867274 84, -110.72084045410156 84 M-110.72084045410156 84 C-110.72084045410156 29.86398259390581, -110.72084045410156 -24.27203481218838, -110.72084045410156 -84 M-110.72084045410156 84 C-110.72084045410156 33.33651742468564, -110.72084045410156 -17.326965150628723, -110.72084045410156 -84" stroke="#9370DB" stroke-width="1.3" fill="none" stroke-dasharray="0 0" style=""></path></g><g class="annotation-group text" transform="translate(-32.900001525878906, -60)"><g class="label" style="" transform="translate(0,-12)"><foreignObject width="65.80000305175781" height="24"><div style="display: table-cell; white-space: nowrap; line-height: 1.5; max-width: 119px; text-align: center;" xmlns="http://www.w3.org/1999/xhtml"><span class="nodeLabel markdown-node-label" style=""><p>«Record»</p></span></div></foreignObject></g></g><g class="label-group text" transform="translate(-61.34166717529297, -36)"><g class="label" style="font-weight: bolder" transform="translate(0,-12)"><foreignObject width="122.68333435058594" height="24"><div style="display: table-cell; white-space: nowrap; line-height: 1.5; max-width: 173px; text-align: center;" xmlns="http://www.w3.org/1999/xhtml"><span class="nodeLabel markdown-node-label" style=""><p>RoomOccupancy</p></span></div></foreignObject></g></g><g class="members-group text" transform="translate(-98.72084045410156, 12)"><g class="label" style="" transform="translate(0,-12)"><foreignObject width="136.10000610351562" height="24"><div style="display: table-cell; white-space: nowrap; line-height: 1.5; max-width: 190px; text-align: center;" xmlns="http://www.w3.org/1999/xhtml"><span class="nodeLabel markdown-node-label" style=""><p>- int peopleInRoom</p></span></div></foreignObject></g><g class="label" style="" transform="translate(0,12)"><foreignObject width="108.06666564941406" height="24"><div style="display: table-cell; white-space: nowrap; line-height: 1.5; max-width: 163px; text-align: center;" xmlns="http://www.w3.org/1999/xhtml"><span class="nodeLabel markdown-node-label" style=""><p>- String roomID</p></span></div></foreignObject></g></g><g class="methods-group text" transform="translate(-98.72084045410156, 84)"></g><g class="divider" style=""><path d="M-110.72084045410156 -12 C-56.860315194866985 -12, -2.999789935632407 -12, 110.72084045410156 -12 M-110.72084045410156 -12 C-61.496872733832426 -12, -12.272905013563289 -12, 110.72084045410156 -12" stroke="#9370DB" stroke-width="1.3" fill="none" stroke-dasharray="0 0" style=""></path></g><g class="divider" style=""><path d="M-110.72084045410156 60 C-64.9904952080575 60, -19.260149962013415 60, 110.72084045410156 60 M-110.72084045410156 60 C-38.40518054084201 60, 33.91047937241754 60, 110.72084045410156 60" stroke="#9370DB" stroke-width="1.3" fill="none" stroke-dasharray="0 0" style=""></path></g></g><g class="node default " id="classId-SensorAPI-120" transform="translate(263.875, 602)"><g class="basic label-container"><path d="M-220.875 -75 L220.875 -75 L220.875 75 L-220.875 75" stroke="none" stroke-width="0" fill="#ECECFF" style=""></path><path d="M-220.875 -75 C-91.58476611825293 -75, 37.70546776349414 -75, 220.875 -75 M-220.875 -75 C-60.09826804947207 -75, 100.67846390105586 -75, 220.875 -75 M220.875 -75 C220.875 -39.64896982878553, 220.875 -4.297939657571064, 220.875 75 M220.875 -75 C220.875 -34.791684595019184, 220.875 5.416630809961632, 220.875 75 M220.875 75 C74.55501602175428 75, -71.76496795649143 75, -220.875 75 M220.875 75 C53.162921337342794 75, -114.54915732531441 75, -220.875 75 M-220.875 75 C-220.875 37.67070487726089, -220.875 0.34140975452177713, -220.875 -75 M-220.875 75 C-220.875 34.9871392638269, -220.875 -5.025721472346206, -220.875 -75" stroke="#9370DB" stroke-width="1.3" fill="none" stroke-dasharray="0 0" style=""></path></g><g class="annotation-group text" transform="translate(-41.116668701171875, -51)"><g class="label" style="" transform="translate(0,-12)"><foreignObject width="82.23333740234375" height="24"><div style="display: table-cell; white-space: nowrap; line-height: 1.5; max-width: 130px; text-align: center;" xmlns="http://www.w3.org/1999/xhtml"><span class="nodeLabel markdown-node-label" style=""><p>«Interface»</p></span></div></foreignObject></g></g><g class="label-group text" transform="translate(-36.78333282470703, -27)"><g class="label" style="font-weight: bolder" transform="translate(0,-12)"><foreignObject width="73.56666564941406" height="24"><div style="display: table-cell; white-space: nowrap; line-height: 1.5; max-width: 126px; text-align: center;" xmlns="http://www.w3.org/1999/xhtml"><span class="nodeLabel markdown-node-label" style=""><p>SensorAPI</p></span></div></foreignObject></g></g><g class="members-group text" transform="translate(-208.875, 21)"></g><g class="methods-group text" transform="translate(-208.875, 51)"><g class="label" style="" transform="translate(0,-12)"><foreignObject width="376.6333312988281" height="24"><div style="display: table-cell; white-space: nowrap; line-height: 1.5; max-width: 470px; text-align: center;" xmlns="http://www.w3.org/1999/xhtml"><span class="nodeLabel markdown-node-label" style=""><p>+ getOccupancy(String) : Optional&lt;RoomOccupancy&gt;</p></span></div></foreignObject></g></g><g class="divider" style=""><path d="M-220.875 -3 C-58.39189483639706 -3, 104.09121032720589 -3, 220.875 -3 M-220.875 -3 C-93.07890956568548 -3, 34.71718086862904 -3, 220.875 -3" stroke="#9370DB" stroke-width="1.3" fill="none" stroke-dasharray="0 0" style=""></path></g><g class="divider" style=""><path d="M-220.875 21 C-125.35961536141814 21, -29.844230722836272 21, 220.875 21 M-220.875 21 C-121.86300845944773 21, -22.851016918895454 21, 220.875 21" stroke="#9370DB" stroke-width="1.3" fill="none" stroke-dasharray="0 0" style=""></path></g></g><g class="node default " id="classId-FileSensorAPI-121" transform="translate(800.4624938964844, 372)"><g class="basic label-container"><path d="M-225.71249389648438 -96 L225.71249389648438 -96 L225.71249389648438 96 L-225.71249389648438 96" stroke="none" stroke-width="0" fill="#ECECFF" style=""></path><path d="M-225.71249389648438 -96 C-83.64083896634293 -96, 58.43081596379852 -96, 225.71249389648438 -96 M-225.71249389648438 -96 C-117.31796409666927 -96, -8.923434296854168 -96, 225.71249389648438 -96 M225.71249389648438 -96 C225.71249389648438 -20.910030576860407, 225.71249389648438 54.179938846279185, 225.71249389648438 96 M225.71249389648438 -96 C225.71249389648438 -27.051372811824905, 225.71249389648438 41.89725437635019, 225.71249389648438 96 M225.71249389648438 96 C103.66528489222391 96, -18.381924112036558 96, -225.71249389648438 96 M225.71249389648438 96 C77.13472876513609 96, -71.4430363662122 96, -225.71249389648438 96 M-225.71249389648438 96 C-225.71249389648438 24.817793144294114, -225.71249389648438 -46.36441371141177, -225.71249389648438 -96 M-225.71249389648438 96 C-225.71249389648438 35.20178518894901, -225.71249389648438 -25.59642962210198, -225.71249389648438 -96" stroke="#9370DB" stroke-width="1.3" fill="none" stroke-dasharray="0 0" style=""></path></g><g class="annotation-group text" transform="translate(0, -72)"></g><g class="label-group text" transform="translate(-50.791664123535156, -72)"><g class="label" style="font-weight: bolder" transform="translate(0,-12)"><foreignObject width="101.58332824707031" height="24"><div style="display: table-cell; white-space: nowrap; line-height: 1.5; max-width: 152px; text-align: center;" xmlns="http://www.w3.org/1999/xhtml"><span class="nodeLabel markdown-node-label" style=""><p>FileSensorAPI</p></span></div></foreignObject></g></g><g class="members-group text" transform="translate(-213.71249389648438, -24)"><g class="label" style="" transform="translate(0,-12)"><foreignObject width="242.31666564941406" height="24"><div style="display: table-cell; white-space: nowrap; line-height: 1.5; max-width: 335px; text-align: center;" xmlns="http://www.w3.org/1999/xhtml"><span class="nodeLabel markdown-node-label" style=""><p>- List&lt;SensorEntry&gt; cachedEntries</p></span></div></foreignObject></g><g class="label" style="" transform="translate(0,12)"><foreignObject width="276.98333740234375" height="24"><div style="display: table-cell; white-space: nowrap; line-height: 1.5; max-width: 376px; text-align: center;" xmlns="http://www.w3.org/1999/xhtml"><span class="nodeLabel markdown-node-label" style=""><p>- JsonReader&lt;SensorEntry&gt; jsonReader</p></span></div></foreignObject></g><g class="label" style="" transform="translate(0,36)"><foreignObject width="102.78334045410156" height="24"><div style="display: table-cell; white-space: nowrap; line-height: 1.5; max-width: 155px; text-align: center;" xmlns="http://www.w3.org/1999/xhtml"><span class="nodeLabel markdown-node-label" style=""><p>- Path filePath</p></span></div></foreignObject></g></g><g class="methods-group text" transform="translate(-213.71249389648438, 72)"><g class="label" style="" transform="translate(0,-12)"><foreignObject width="376.6333312988281" height="24"><div style="display: table-cell; white-space: nowrap; line-height: 1.5; max-width: 470px; text-align: center;" xmlns="http://www.w3.org/1999/xhtml"><span class="nodeLabel markdown-node-label" style=""><p>+ getOccupancy(String) : Optional&lt;RoomOccupancy&gt;</p></span></div></foreignObject></g></g><g class="divider" style=""><path d="M-225.71249389648438 -48 C-119.2385849920359 -48, -12.764676087587418 -48, 225.71249389648438 -48 M-225.71249389648438 -48 C-62.20553306419268 -48, 101.30142776809902 -48, 225.71249389648438 -48" stroke="#9370DB" stroke-width="1.3" fill="none" stroke-dasharray="0 0" style=""></path></g><g class="divider" style=""><path d="M-225.71249389648438 48 C-105.78373335358314 48, 14.145027189318085 48, 225.71249389648438 48 M-225.71249389648438 48 C-135.2584104977717 48, -44.80432709905904 48, 225.71249389648438 48" stroke="#9370DB" stroke-width="1.3" fill="none" stroke-dasharray="0 0" style=""></path></g></g><g class="node default " id="classId-SensorEntry-122" transform="translate(800.4624938964844, 602)"><g class="basic label-container"><path d="M-106.70833587646484 -84 L106.70833587646484 -84 L106.70833587646484 84 L-106.70833587646484 84" stroke="none" stroke-width="0" fill="#ECECFF" style=""></path><path d="M-106.70833587646484 -84 C-43.79914410182952 -84, 19.110047672805806 -84, 106.70833587646484 -84 M-106.70833587646484 -84 C-39.83975626645531 -84, 27.028823343554222 -84, 106.70833587646484 -84 M106.70833587646484 -84 C106.70833587646484 -49.87908479805585, 106.70833587646484 -15.7581695961117, 106.70833587646484 84 M106.70833587646484 -84 C106.70833587646484 -46.36000447886535, 106.70833587646484 -8.720008957730698, 106.70833587646484 84 M106.70833587646484 84 C31.536929637064233 84, -43.63447660233638 84, -106.70833587646484 84 M106.70833587646484 84 C63.901084150684426 84, 21.093832424904008 84, -106.70833587646484 84 M-106.70833587646484 84 C-106.70833587646484 41.768794988264325, -106.70833587646484 -0.4624100234713495, -106.70833587646484 -84 M-106.70833587646484 84 C-106.70833587646484 37.62879083688294, -106.70833587646484 -8.742418326234116, -106.70833587646484 -84" stroke="#9370DB" stroke-width="1.3" fill="none" stroke-dasharray="0 0" style=""></path></g><g class="annotation-group text" transform="translate(-32.900001525878906, -60)"><g class="label" style="" transform="translate(0,-12)"><foreignObject width="65.80000305175781" height="24"><div style="display: table-cell; white-space: nowrap; line-height: 1.5; max-width: 119px; text-align: center;" xmlns="http://www.w3.org/1999/xhtml"><span class="nodeLabel markdown-node-label" style=""><p>«Record»</p></span></div></foreignObject></g></g><g class="label-group text" transform="translate(-44.93333435058594, -36)"><g class="label" style="font-weight: bolder" transform="translate(0,-12)"><foreignObject width="89.86666870117188" height="24"><div style="display: table-cell; white-space: nowrap; line-height: 1.5; max-width: 138px; text-align: center;" xmlns="http://www.w3.org/1999/xhtml"><span class="nodeLabel markdown-node-label" style=""><p>SensorEntry</p></span></div></foreignObject></g></g><g class="members-group text" transform="translate(-94.70833587646484, 12)"><g class="label" style="" transform="translate(0,-12)"><foreignObject width="116.44999694824219" height="24"><div style="display: table-cell; white-space: nowrap; line-height: 1.5; max-width: 171px; text-align: center;" xmlns="http://www.w3.org/1999/xhtml"><span class="nodeLabel markdown-node-label" style=""><p>+ roomID: String</p></span></div></foreignObject></g><g class="label" style="" transform="translate(0,12)"><foreignObject width="144.48333740234375" height="24"><div style="display: table-cell; white-space: nowrap; line-height: 1.5; max-width: 198px; text-align: center;" xmlns="http://www.w3.org/1999/xhtml"><span class="nodeLabel markdown-node-label" style=""><p>+ peopleInRoom: int</p></span></div></foreignObject></g></g><g class="methods-group text" transform="translate(-94.70833587646484, 84)"></g><g class="divider" style=""><path d="M-106.70833587646484 -12 C-61.62088491592336 -12, -16.53343395538188 -12, 106.70833587646484 -12 M-106.70833587646484 -12 C-39.62427093150953 -12, 27.459794013445787 -12, 106.70833587646484 -12" stroke="#9370DB" stroke-width="1.3" fill="none" stroke-dasharray="0 0" style=""></path></g><g class="divider" style=""><path d="M-106.70833587646484 60 C-56.34410458021093 60, -5.979873283957019 60, 106.70833587646484 60 M-106.70833587646484 60 C-56.66582682284635 60, -6.623317769227853 60, 106.70833587646484 60" stroke="#9370DB" stroke-width="1.3" fill="none" stroke-dasharray="0 0" style=""></path></g></g><g class="node default " id="classId-JsonReader-123" transform="translate(920.8187408447266, 117)"><g class="basic label-container"><path d="M-69.625 -42 L69.625 -42 L69.625 42 L-69.625 42" stroke="none" stroke-width="0" fill="#ECECFF" style=""></path><path d="M-69.625 -42 C-40.09478918146827 -42, -10.564578362936551 -42, 69.625 -42 M-69.625 -42 C-36.05353325706713 -42, -2.48206651413426 -42, 69.625 -42 M69.625 -42 C69.625 -19.18024094129077, 69.625 3.6395181174184614, 69.625 42 M69.625 -42 C69.625 -9.965101655101599, 69.625 22.069796689796803, 69.625 42 M69.625 42 C36.65729359683999 42, 3.6895871936799836 42, -69.625 42 M69.625 42 C41.092094482481485 42, 12.55918896496297 42, -69.625 42 M-69.625 42 C-69.625 22.524421671262402, -69.625 3.0488433425248047, -69.625 -42 M-69.625 42 C-69.625 13.092716165878091, -69.625 -15.814567668243818, -69.625 -42" stroke="#9370DB" stroke-width="1.3" fill="none" stroke-dasharray="0 0" style=""></path></g><g class="annotation-group text" transform="translate(0, -18)"></g><g class="label-group text" transform="translate(-57.625, -18)"><g class="label" style="font-weight: bolder" transform="translate(0,-12)"><foreignObject width="115.25" height="24"><div style="display: table-cell; white-space: nowrap; line-height: 1.5; max-width: 198px; text-align: center;" xmlns="http://www.w3.org/1999/xhtml"><span class="nodeLabel markdown-node-label" style=""><p>JsonReader&lt;T&gt;</p></span></div></foreignObject></g></g><g class="members-group text" transform="translate(-57.625, 30)"></g><g class="methods-group text" transform="translate(-57.625, 60)"></g><g class="divider" style=""><path d="M-69.625 6 C-22.045172273586537 6, 25.534655452826925 6, 69.625 6 M-69.625 6 C-21.43304312433149 6, 26.75891375133702 6, 69.625 6" stroke="#9370DB" stroke-width="1.3" fill="none" stroke-dasharray="0 0" style=""></path></g><g class="divider" style=""><path d="M-69.625 24 C-16.308977297981436 24, 37.00704540403713 24, 69.625 24 M-69.625 24 C-31.909893013112658 24, 5.805213973774684 24, 69.625 24" stroke="#9370DB" stroke-width="1.3" fill="none" stroke-dasharray="0 0" style=""></path></g></g></g></g></g><text text-anchor="middle" x="534.5875244140625" y="-25" class="classDiagramTitleText">Package sensors</text></svg>