<svg id="mermaid-1765115106861-qdbgm9is8" width="100%" xmlns="http://www.w3.org/2000/svg" class="classDiagram" style="max-width: 986.625px;" viewBox="0 -48 986.625 992" role="graphics-document document" aria-roledescription="class"><style>#mermaid-1765115106861-qdbgm9is8{font-family:"trebuchet ms",verdana,arial,sans-serif;font-size:16px;fill:#333;}@keyframes edge-animation-frame{from{stroke-dashoffset:0;}}@keyframes dash{to{stroke-dashoffset:0;}}#mermaid-1765115106861-qdbgm9is8 .edge-animation-slow{stroke-dasharray:9,5!important;stroke-dashoffset:900;animation:dash 50s linear infinite;stroke-linecap:round;}#mermaid-1765115106861-qdbgm9is8 .edge-animation-fast{stroke-dasharray:9,5!important;stroke-dashoffset:900;animation:dash 20s linear infinite;stroke-linecap:round;}#mermaid-1765115106861-qdbgm9is8 .error-icon{fill:#552222;}#mermaid-1765115106861-qdbgm9is8 .error-text{fill:#552222;stroke:#552222;}#mermaid-1765115106861-qdbgm9is8 .edge-thickness-normal{stroke-width:1px;}#mermaid-1765115106861-qdbgm9is8 .edge-thickness-thick{stroke-width:3.5px;}#mermaid-1765115106861-qdbgm9is8 .edge-pattern-solid{stroke-dasharray:0;}#mermaid-1765115106861-qdbgm9is8 .edge-thickness-invisible{stroke-width:0;fill:none;}#mermaid-1765115106861-qdbgm9is8 .edge-pattern-dashed{stroke-dasharray:3;}#mermaid-1765115106861-qdbgm9is8 .edge-pattern-dotted{stroke-dasharray:2;}#mermaid-1765115106861-qdbgm9is8 .marker{fill:#333333;stroke:#333333;}#mermaid-1765115106861-qdbgm9is8 .marker.cross{stroke:#333333;}#mermaid-1765115106861-qdbgm9is8 svg{font-family:"trebuchet ms",verdana,arial,sans-serif;font-size:16px;}#mermaid-1765115106861-qdbgm9is8 p{margin:0;}#mermaid-1765115106861-qdbgm9is8 g.classGroup text{fill:#9370DB;stroke:none;font-family:"trebuchet ms",verdana,arial,sans-serif;font-size:10px;}#mermaid-1765115106861-qdbgm9is8 g.classGroup text .title{font-weight:bolder;}#mermaid-1765115106861-qdbgm9is8 .nodeLabel,#mermaid-1765115106861-qdbgm9is8 .edgeLabel{color:#131300;}#mermaid-1765115106861-qdbgm9is8 .edgeLabel .label rect{fill:#ECECFF;}#mermaid-1765115106861-qdbgm9is8 .label text{fill:#131300;}#mermaid-1765115106861-qdbgm9is8 .labelBkg{background:#ECECFF;}#mermaid-1765115106861-qdbgm9is8 .edgeLabel .label span{background:#ECECFF;}#mermaid-1765115106861-qdbgm9is8 .classTitle{font-weight:bolder;}#mermaid-1765115106861-qdbgm9is8 .node rect,#mermaid-1765115106861-qdbgm9is8 .node circle,#mermaid-1765115106861-qdbgm9is8 .node ellipse,#mermaid-1765115106861-qdbgm9is8 .node polygon,#mermaid-1765115106861-qdbgm9is8 .node path{fill:#ECECFF;stroke:#9370DB;stroke-width:1px;}#mermaid-1765115106861-qdbgm9is8 .divider{stroke:#9370DB;stroke-width:1;}#mermaid-1765115106861-qdbgm9is8 g.clickable{cursor:pointer;}#mermaid-1765115106861-qdbgm9is8 g.classGroup rect{fill:#ECECFF;stroke:#9370DB;}#mermaid-1765115106861-qdbgm9is8 g.classGroup line{stroke:#9370DB;stroke-width:1;}#mermaid-1765115106861-qdbgm9is8 .classLabel .box{stroke:none;stroke-width:0;fill:#ECECFF;opacity:0.5;}#mermaid-1765115106861-qdbgm9is8 .classLabel .label{fill:#9370DB;font-size:10px;}#mermaid-1765115106861-qdbgm9is8 .relation{stroke:#333333;stroke-width:1;fill:none;}#mermaid-1765115106861-qdbgm9is8 .dashed-line{stroke-dasharray:3;}#mermaid-1765115106861-qdbgm9is8 .dotted-line{stroke-dasharray:1 2;}#mermaid-1765115106861-qdbgm9is8 #compositionStart,#mermaid-1765115106861-qdbgm9is8 .composition{fill:#333333!important;stroke:#333333!important;stroke-width:1;}#mermaid-1765115106861-qdbgm9is8 #compositionEnd,#mermaid-1765115106861-qdbgm9is8 .composition{fill:#333333!important;stroke:#333333!important;stroke-width:1;}#mermaid-1765115106861-qdbgm9is8 #dependencyStart,#mermaid-1765115106861-qdbgm9is8 .dependency{fill:#333333!important;stroke:#333333!important;stroke-width:1;}#mermaid-1765115106861-qdbgm9is8 #dependencyStart,#mermaid-1765115106861-qdbgm9is8 .dependency{fill:#333333!important;stroke:#333333!important;stroke-width:1;}#mermaid-1765115106861-qdbgm9is8 #extensionStart,#mermaid-1765115106861-qdbgm9is8 .extension{fill:transparent!important;stroke:#333333!important;stroke-width:1;}#mermaid-1765115106861-qdbgm9is8 #extensionEnd,#mermaid-1765115106861-qdbgm9is8 .extension{fill:transparent!important;stroke:#333333!important;stroke-width:1;}#mermaid-1765115106861-qdbgm9is8 #aggregationStart,#mermaid-1765115106861-qdbgm9is8 .aggregation{fill:transparent!important;stroke:#333333!important;stroke-width:1;}#mermaid-1765115106861-qdbgm9is8 #aggregationEnd,#mermaid-1765115106861-qdbgm9is8 .aggregation{fill:transparent!important;stroke:#333333!important;stroke-width:1;}#mermaid-1765115106861-qdbgm9is8 #lollipopStart,#mermaid-1765115106861-qdbgm9is8 .lollipop{fill:#ECECFF!important;stroke:#333333!important;stroke-width:1;}#mermaid-1765115106861-qdbgm9is8 #lollipopEnd,#mermaid-1765115106861-qdbgm9is8 .lollipop{fill:#ECECFF!important;stroke:#333333!important;stroke-width:1;}#mermaid-1765115106861-qdbgm9is8 .edgeTerminals{font-size:11px;line-height:initial;}#mermaid-1765115106861-qdbgm9is8 .classTitleText{text-anchor:middle;font-size:18px;fill:#333;}#mermaid-1765115106861-qdbgm9is8 .label-icon{display:inline-block;height:1em;overflow:visible;vertical-align:-0.125em;}#mermaid-1765115106861-qdbgm9is8 .node .label-icon path{fill:currentColor;stroke:revert;stroke-width:revert;}#mermaid-1765115106861-qdbgm9is8 :root{--mermaid-font-family:"trebuchet ms",verdana,arial,sans-serif;}</style><g><defs><marker id="mermaid-1765115106861-qdbgm9is8_class-aggregationStart" class="marker aggregation class" refX="18" refY="7" markerWidth="190" markerHeight="240" orient="auto"><path d="M 18,7 L9,13 L1,7 L9,1 Z"></path></marker></defs><defs><marker id="mermaid-1765115106861-qdbgm9is8_class-aggregationEnd" class="marker aggregation class" refX="1" refY="7" markerWidth="20" markerHeight="28" orient="auto"><path d="M 18,7 L9,13 L1,7 L9,1 Z"></path></marker></defs><defs><marker id="mermaid-1765115106861-qdbgm9is8_class-extensionStart" class="marker extension class" refX="18" refY="7" markerWidth="190" markerHeight="240" orient="auto"><path d="M 1,7 L18,13 V 1 Z"></path></marker></defs><defs><marker id="mermaid-1765115106861-qdbgm9is8_class-extensionEnd" class="marker extension class" refX="1" refY="7" markerWidth="20" markerHeight="28" orient="auto"><path d="M 1,1 V 13 L18,7 Z"></path></marker></defs><defs><marker id="mermaid-1765115106861-qdbgm9is8_class-compositionStart" class="marker composition class" refX="18" refY="7" markerWidth="190" markerHeight="240" orient="auto"><path d="M 18,7 L9,13 L1,7 L9,1 Z"></path></marker></defs><defs><marker id="mermaid-1765115106861-qdbgm9is8_class-compositionEnd" class="marker composition class" refX="1" refY="7" markerWidth="20" markerHeight="28" orient="auto"><path d="M 18,7 L9,13 L1,7 L9,1 Z"></path></marker></defs><defs><marker id="mermaid-1765115106861-qdbgm9is8_class-dependencyStart" class="marker dependency class" refX="6" refY="7" markerWidth="190" markerHeight="240" orient="auto"><path d="M 5,7 L9,13 L1,7 L9,1 Z"></path></marker></defs><defs><marker id="mermaid-1765115106861-qdbgm9is8_class-dependencyEnd" class="marker dependency class" refX="13" refY="7" markerWidth="20" markerHeight="28" orient="auto"><path d="M 18,7 L9,13 L14,7 L9,1 Z"></path></marker></defs><defs><marker id="mermaid-1765115106861-qdbgm9is8_class-lollipopStart" class="marker lollipop class" refX="13" refY="7" markerWidth="190" markerHeight="240" orient="auto"><circle stroke="black" fill="transparent" cx="7" cy="7" r="6"></circle></marker></defs><defs><marker id="mermaid-1765115106861-qdbgm9is8_class-lollipopEnd" class="marker lollipop class" refX="1" refY="7" markerWidth="190" markerHeight="240" orient="auto"><circle stroke="black" fill="transparent" cx="7" cy="7" r="6"></circle></marker></defs><g class="root"><g class="clusters"><g class="cluster undefined" id="api" data-look="classic"><rect style="fill:none !important;stroke:black !important" x="8" y="8" width="468.308349609375" height="928"></rect><g class="cluster-label " transform="translate(231.21250915527344, 8)"><foreignObject width="21.883331298828125" height="24"><div style="display: table-cell; white-space: nowrap; line-height: 1.5; max-width: 200px; text-align: center;" xmlns="http://www.w3.org/1999/xhtml"><span class="nodeLabel "><p>api</p></span></div></foreignObject></g></g><g class="cluster undefined" id="simulation" data-look="classic"><rect style="fill:none !important;stroke:black !important" x="496.308349609375" y="469" width="482.3166809082031" height="242"></rect><g class="cluster-label " transform="translate(700.2416915893555, 469)"><foreignObject width="74.44999694824219" height="24"><div style="display: table-cell; white-space: nowrap; line-height: 1.5; max-width: 200px; text-align: center;" xmlns="http://www.w3.org/1999/xhtml"><span class="nodeLabel "><p>simulation</p></span></div></foreignObject></g></g></g><g class="edgePaths"><path d="M335.617,748.714L337.886,746.595C340.155,744.476,344.693,740.238,346.962,733.952C349.231,727.667,349.231,719.333,379.577,705.709C409.924,692.084,470.616,673.168,500.962,663.711L531.308,654.253" id="id_ReservationAPI_FileReservationAPI_1" class=" edge-thickness-normal edge-pattern-dashed relation" style="" marker-start="url(#mermaid-1765115106861-qdbgm9is8_class-extensionStart)"></path><path d="M161.846,761L157.385,756.833C152.923,752.667,144,744.333,139.539,736C135.077,727.667,135.077,719.333,135.077,695C135.077,670.667,135.077,630.333,135.077,590C135.077,549.667,135.077,509.333,135.077,485C135.077,460.667,135.077,452.333,137.912,444.768C140.748,437.202,146.418,430.405,149.254,427.006L152.089,423.607" id="id_ReservationAPI_RoomReservation_2" class=" edge-thickness-normal edge-pattern-dashed relation" style="" marker-end="url(#mermaid-1765115106861-qdbgm9is8_class-dependencyEnd)"></path><path d="M825.199,494L829.007,489.833C832.815,485.667,840.43,477.333,844.238,469C848.046,460.667,848.046,452.333,848.046,438C848.046,423.667,848.046,403.333,848.046,393.167L848.046,383" id="id_FileReservationAPI_JsonReader_3" class=" edge-thickness-normal edge-pattern-solid relation" style="" marker-end="url(#mermaid-1765115106861-qdbgm9is8_class-dependencyEnd)"></path><path d="M657.668,494L654.205,489.833C650.741,485.667,643.814,477.333,589.717,469C535.619,460.667,434.351,452.333,380.325,444.713C326.299,437.093,319.514,430.187,316.121,426.734L312.729,423.28" id="id_FileReservationAPI_RoomReservation_4" class=" edge-thickness-normal edge-pattern-solid relation" style="" marker-end="url(#mermaid-1765115106861-qdbgm9is8_class-dependencyEnd)"></path><path d="M226.006,233L226.006,231.833C226.006,230.667,226.006,228.333,226.006,223C226.006,217.667,226.006,209.333,226.006,205.167L226.006,201" id="id_RoomReservation_TimeWindow_5" class=" edge-thickness-normal edge-pattern-solid relation" style="" marker-start="url(#mermaid-1765115106861-qdbgm9is8_class-compositionStart)"></path></g><g class="edgeLabels"><g class="edgeLabel"><g class="label" transform="translate(0, -12)"><foreignObject width="0" height="24"><div style="display: table-cell; white-space: nowrap; line-height: 1.5; max-width: 200px; text-align: center;" xmlns="http://www.w3.org/1999/xhtml" class="labelBkg"><span style=";display: inline-block" class="edgeLabel "></span></div></foreignObject></g></g><g class="edgeLabel"><g class="label" transform="translate(0, -12)"><foreignObject width="0" height="24"><div style="display: table-cell; white-space: nowrap; line-height: 1.5; max-width: 200px; text-align: center;" xmlns="http://www.w3.org/1999/xhtml" class="labelBkg"><span style=";display: inline-block" class="edgeLabel "></span></div></foreignObject></g></g><g class="edgeLabel"><g class="label" transform="translate(0, -12)"><foreignObject width="0" height="24"><div style="display: table-cell; white-space: nowrap; line-height: 1.5; max-width: 200px; text-align: center;" xmlns="http://www.w3.org/1999/xhtml" class="labelBkg"><span style=";display: inline-block" class="edgeLabel "></span></div></foreignObject></g></g><g class="edgeLabel"><g class="label" transform="translate(0, -12)"><foreignObject width="0" height="24"><div style="display: table-cell; white-space: nowrap; line-height: 1.5; max-width: 200px; text-align: center;" xmlns="http://www.w3.org/1999/xhtml" class="labelBkg"><span style=";display: inline-block" class="edgeLabel "></span></div></foreignObject></g></g><g class="edgeLabel"><g class="label" transform="translate(0, -12)"><foreignObject width="0" height="24"><div style="display: table-cell; white-space: nowrap; line-height: 1.5; max-width: 200px; text-align: center;" xmlns="http://www.w3.org/1999/xhtml" class="labelBkg"><span style=";display: inline-block" class="edgeLabel "></span></div></foreignObject></g></g></g><g class="nodes"><g class="node default " id="classId-ReservationAPI-93" transform="translate(242.1541748046875, 836)"><g class="basic label-container"><path d="M-199.1541748046875 -75 L199.1541748046875 -75 L199.1541748046875 75 L-199.1541748046875 75" stroke="none" stroke-width="0" fill="#ECECFF" style=""></path><path d="M-199.1541748046875 -75 C-103.23355758428458 -75, -7.3129403638816655 -75, 199.1541748046875 -75 M-199.1541748046875 -75 C-114.86658373159166 -75, -30.57899265849582 -75, 199.1541748046875 -75 M199.1541748046875 -75 C199.1541748046875 -32.0032492081094, 199.1541748046875 10.993501583781196, 199.1541748046875 75 M199.1541748046875 -75 C199.1541748046875 -36.12000144893121, 199.1541748046875 2.759997102137575, 199.1541748046875 75 M199.1541748046875 75 C114.52656048625727 75, 29.898946167827035 75, -199.1541748046875 75 M199.1541748046875 75 C71.2224418235704 75, -56.70929115754669 75, -199.1541748046875 75 M-199.1541748046875 75 C-199.1541748046875 19.731069680132094, -199.1541748046875 -35.53786063973581, -199.1541748046875 -75 M-199.1541748046875 75 C-199.1541748046875 41.25830922087349, -199.1541748046875 7.516618441746985, -199.1541748046875 -75" stroke="#9370DB" stroke-width="1.3" fill="none" stroke-dasharray="0 0" style=""></path></g><g class="annotation-group text" transform="translate(-41.116668701171875, -51)"><g class="label" style="" transform="translate(0,-12)"><foreignObject width="82.23333740234375" height="24"><div style="display: table-cell; white-space: nowrap; line-height: 1.5; max-width: 130px; text-align: center;" xmlns="http://www.w3.org/1999/xhtml"><span class="nodeLabel markdown-node-label" style=""><p>«Interface»</p></span></div></foreignObject></g></g><g class="label-group text" transform="translate(-56.208335876464844, -27)"><g class="label" style="font-weight: bolder" transform="translate(0,-12)"><foreignObject width="112.41667175292969" height="24"><div style="display: table-cell; white-space: nowrap; line-height: 1.5; max-width: 161px; text-align: center;" xmlns="http://www.w3.org/1999/xhtml"><span class="nodeLabel markdown-node-label" style=""><p>ReservationAPI</p></span></div></foreignObject></g></g><g class="members-group text" transform="translate(-187.1541748046875, 21)"></g><g class="methods-group text" transform="translate(-187.1541748046875, 51)"><g class="label" style="" transform="translate(0,-12)"><foreignObject width="318.1000061035156" height="24"><div style="display: table-cell; white-space: nowrap; line-height: 1.5; max-width: 412px; text-align: center;" xmlns="http://www.w3.org/1999/xhtml"><span class="nodeLabel markdown-node-label" style=""><p>+ getReservations() : List&lt;RoomReservation&gt;</p></span></div></foreignObject></g></g><g class="divider" style=""><path d="M-199.1541748046875 -3 C-50.2963723057907 -3, 98.5614301931061 -3, 199.1541748046875 -3 M-199.1541748046875 -3 C-84.39980331062448 -3, 30.354568183438545 -3, 199.1541748046875 -3" stroke="#9370DB" stroke-width="1.3" fill="none" stroke-dasharray="0 0" style=""></path></g><g class="divider" style=""><path d="M-199.1541748046875 21 C-61.88515471006761 21, 75.38386538455228 21, 199.1541748046875 21 M-199.1541748046875 21 C-95.42375010383951 21, 8.306674597008481 21, 199.1541748046875 21" stroke="#9370DB" stroke-width="1.3" fill="none" stroke-dasharray="0 0" style=""></path></g></g><g class="node default " id="classId-TimeWindow-94" transform="translate(226.00625610351562, 117)"><g class="basic label-container"><path d="M-113.80833435058594 -84 L113.80833435058594 -84 L113.80833435058594 84 L-113.80833435058594 84" stroke="none" stroke-width="0" fill="#ECECFF" style=""></path><path d="M-113.80833435058594 -84 C-30.94964498420518 -84, 51.90904438217558 -84, 113.80833435058594 -84 M-113.80833435058594 -84 C-31.548604945605973 -84, 50.71112445937399 -84, 113.80833435058594 -84 M113.80833435058594 -84 C113.80833435058594 -40.6038938151656, 113.80833435058594 2.7922123696688033, 113.80833435058594 84 M113.80833435058594 -84 C113.80833435058594 -40.4431242465898, 113.80833435058594 3.1137515068204067, 113.80833435058594 84 M113.80833435058594 84 C57.05878462820392 84, 0.3092349058218957 84, -113.80833435058594 84 M113.80833435058594 84 C50.07895018686759 84, -13.650433976850763 84, -113.80833435058594 84 M-113.80833435058594 84 C-113.80833435058594 32.07646924646326, -113.80833435058594 -19.847061507073477, -113.80833435058594 -84 M-113.80833435058594 84 C-113.80833435058594 42.850591998430744, -113.80833435058594 1.701183996861488, -113.80833435058594 -84" stroke="#9370DB" stroke-width="1.3" fill="none" stroke-dasharray="0 0" style=""></path></g><g class="annotation-group text" transform="translate(-32.900001525878906, -60)"><g class="label" style="" transform="translate(0,-12)"><foreignObject width="65.80000305175781" height="24"><div style="display: table-cell; white-space: nowrap; line-height: 1.5; max-width: 119px; text-align: center;" xmlns="http://www.w3.org/1999/xhtml"><span class="nodeLabel markdown-node-label" style=""><p>«Record»</p></span></div></foreignObject></g></g><g class="label-group text" transform="translate(-48.06666564941406, -36)"><g class="label" style="font-weight: bolder" transform="translate(0,-12)"><foreignObject width="96.13333129882812" height="24"><div style="display: table-cell; white-space: nowrap; line-height: 1.5; max-width: 142px; text-align: center;" xmlns="http://www.w3.org/1999/xhtml"><span class="nodeLabel markdown-node-label" style=""><p>TimeWindow</p></span></div></foreignObject></g></g><g class="members-group text" transform="translate(-101.80833435058594, 12)"><g class="label" style="" transform="translate(0,-12)"><foreignObject width="155.5500030517578" height="24"><div style="display: table-cell; white-space: nowrap; line-height: 1.5; max-width: 207px; text-align: center;" xmlns="http://www.w3.org/1999/xhtml"><span class="nodeLabel markdown-node-label" style=""><p>- LocalDateTime start</p></span></div></foreignObject></g><g class="label" style="" transform="translate(0,12)"><foreignObject width="148.14999389648438" height="24"><div style="display: table-cell; white-space: nowrap; line-height: 1.5; max-width: 202px; text-align: center;" xmlns="http://www.w3.org/1999/xhtml"><span class="nodeLabel markdown-node-label" style=""><p>- LocalDateTime end</p></span></div></foreignObject></g></g><g class="methods-group text" transform="translate(-101.80833435058594, 84)"></g><g class="divider" style=""><path d="M-113.80833435058594 -12 C-62.14378310715847 -12, -10.479231863731002 -12, 113.80833435058594 -12 M-113.80833435058594 -12 C-66.71671598369026 -12, -19.62509761679459 -12, 113.80833435058594 -12" stroke="#9370DB" stroke-width="1.3" fill="none" stroke-dasharray="0 0" style=""></path></g><g class="divider" style=""><path d="M-113.80833435058594 60 C-41.05579183084697 60, 31.696750688891996 60, 113.80833435058594 60 M-113.80833435058594 60 C-27.416636596924278 60, 58.97506115673738 60, 113.80833435058594 60" stroke="#9370DB" stroke-width="1.3" fill="none" stroke-dasharray="0 0" style=""></path></g></g><g class="node default " id="classId-RoomReservation-95" transform="translate(226.00625610351562, 335)"><g class="basic label-container"><path d="M-166.85833740234375 -84 L166.85833740234375 -84 L166.85833740234375 84 L-166.85833740234375 84" stroke="none" stroke-width="0" fill="#ECECFF" style=""></path><path d="M-166.85833740234375 -84 C-65.94907362650777 -84, 34.96019014932821 -84, 166.85833740234375 -84 M-166.85833740234375 -84 C-92.67477256893206 -84, -18.491207735520362 -84, 166.85833740234375 -84 M166.85833740234375 -84 C166.85833740234375 -24.530594925686984, 166.85833740234375 34.93881014862603, 166.85833740234375 84 M166.85833740234375 -84 C166.85833740234375 -18.907507405768484, 166.85833740234375 46.18498518846303, 166.85833740234375 84 M166.85833740234375 84 C47.85160201400954 84, -71.15513337432466 84, -166.85833740234375 84 M166.85833740234375 84 C86.21279772052321 84, 5.5672580387026755 84, -166.85833740234375 84 M-166.85833740234375 84 C-166.85833740234375 34.22269512237778, -166.85833740234375 -15.554609755244442, -166.85833740234375 -84 M-166.85833740234375 84 C-166.85833740234375 31.1683449467765, -166.85833740234375 -21.663310106447, -166.85833740234375 -84" stroke="#9370DB" stroke-width="1.3" fill="none" stroke-dasharray="0 0" style=""></path></g><g class="annotation-group text" transform="translate(-32.900001525878906, -60)"><g class="label" style="" transform="translate(0,-12)"><foreignObject width="65.80000305175781" height="24"><div style="display: table-cell; white-space: nowrap; line-height: 1.5; max-width: 119px; text-align: center;" xmlns="http://www.w3.org/1999/xhtml"><span class="nodeLabel markdown-node-label" style=""><p>«Record»</p></span></div></foreignObject></g></g><g class="label-group text" transform="translate(-65.03333282470703, -36)"><g class="label" style="font-weight: bolder" transform="translate(0,-12)"><foreignObject width="130.06666564941406" height="24"><div style="display: table-cell; white-space: nowrap; line-height: 1.5; max-width: 178px; text-align: center;" xmlns="http://www.w3.org/1999/xhtml"><span class="nodeLabel markdown-node-label" style=""><p>RoomReservation</p></span></div></foreignObject></g></g><g class="members-group text" transform="translate(-154.85833740234375, 12)"><g class="label" style="" transform="translate(0,-12)"><foreignObject width="108.06666564941406" height="24"><div style="display: table-cell; white-space: nowrap; line-height: 1.5; max-width: 163px; text-align: center;" xmlns="http://www.w3.org/1999/xhtml"><span class="nodeLabel markdown-node-label" style=""><p>- String roomID</p></span></div></foreignObject></g><g class="label" style="" transform="translate(0,12)"><foreignObject width="244.68333435058594" height="24"><div style="display: table-cell; white-space: nowrap; line-height: 1.5; max-width: 332px; text-align: center;" xmlns="http://www.w3.org/1999/xhtml"><span class="nodeLabel markdown-node-label" style=""><p>- List&lt;TimeWindow&gt; timeWindows</p></span></div></foreignObject></g></g><g class="methods-group text" transform="translate(-154.85833740234375, 84)"></g><g class="divider" style=""><path d="M-166.85833740234375 -12 C-37.510461605910365 -12, 91.83741419052302 -12, 166.85833740234375 -12 M-166.85833740234375 -12 C-44.997248850378654 -12, 76.86383970158644 -12, 166.85833740234375 -12" stroke="#9370DB" stroke-width="1.3" fill="none" stroke-dasharray="0 0" style=""></path></g><g class="divider" style=""><path d="M-166.85833740234375 60 C-71.33063350360189 60, 24.197070395139974 60, 166.85833740234375 60 M-166.85833740234375 60 C-53.68220295606069 60, 59.493931490222366 60, 166.85833740234375 60" stroke="#9370DB" stroke-width="1.3" fill="none" stroke-dasharray="0 0" style=""></path></g></g><g class="node default " id="classId-FileReservationAPI-96" transform="translate(737.4666900634766, 590)"><g class="basic label-container"><path d="M-206.15834045410156 -96 L206.15834045410156 -96 L206.15834045410156 96 L-206.15834045410156 96" stroke="none" stroke-width="0" fill="#ECECFF" style=""></path><path d="M-206.15834045410156 -96 C-79.4053398736872 -96, 47.34766070672717 -96, 206.15834045410156 -96 M-206.15834045410156 -96 C-66.68625837271188 -96, 72.78582370867781 -96, 206.15834045410156 -96 M206.15834045410156 -96 C206.15834045410156 -23.342747156269454, 206.15834045410156 49.31450568746109, 206.15834045410156 96 M206.15834045410156 -96 C206.15834045410156 -28.712118358451235, 206.15834045410156 38.57576328309753, 206.15834045410156 96 M206.15834045410156 96 C117.83752281395441 96, 29.516705173807253 96, -206.15834045410156 96 M206.15834045410156 96 C111.09948752147184 96, 16.040634588842124 96, -206.15834045410156 96 M-206.15834045410156 96 C-206.15834045410156 57.56848864547266, -206.15834045410156 19.136977290945325, -206.15834045410156 -96 M-206.15834045410156 96 C-206.15834045410156 31.23615201381125, -206.15834045410156 -33.5276959723775, -206.15834045410156 -96" stroke="#9370DB" stroke-width="1.3" fill="none" stroke-dasharray="0 0" style=""></path></g><g class="annotation-group text" transform="translate(0, -72)"></g><g class="label-group text" transform="translate(-70.21666717529297, -72)"><g class="label" style="font-weight: bolder" transform="translate(0,-12)"><foreignObject width="140.43333435058594" height="24"><div style="display: table-cell; white-space: nowrap; line-height: 1.5; max-width: 187px; text-align: center;" xmlns="http://www.w3.org/1999/xhtml"><span class="nodeLabel markdown-node-label" style=""><p>FileReservationAPI</p></span></div></foreignObject></g></g><g class="members-group text" transform="translate(-194.15834045410156, -24)"><g class="label" style="" transform="translate(0,-12)"><foreignObject width="102.78334045410156" height="24"><div style="display: table-cell; white-space: nowrap; line-height: 1.5; max-width: 155px; text-align: center;" xmlns="http://www.w3.org/1999/xhtml"><span class="nodeLabel markdown-node-label" style=""><p>- Path filePath</p></span></div></foreignObject></g><g class="label" style="" transform="translate(0,12)"><foreignObject width="313.83331298828125" height="24"><div style="display: table-cell; white-space: nowrap; line-height: 1.5; max-width: 411px; text-align: center;" xmlns="http://www.w3.org/1999/xhtml"><span class="nodeLabel markdown-node-label" style=""><p>- JsonReader&lt;ReservationEntry&gt; jsonReader</p></span></div></foreignObject></g><g class="label" style="" transform="translate(0,36)"><foreignObject width="279.16668701171875" height="24"><div style="display: table-cell; white-space: nowrap; line-height: 1.5; max-width: 369px; text-align: center;" xmlns="http://www.w3.org/1999/xhtml"><span class="nodeLabel markdown-node-label" style=""><p>- List&lt;ReservationEntry&gt; cachedEntries</p></span></div></foreignObject></g></g><g class="methods-group text" transform="translate(-194.15834045410156, 72)"><g class="label" style="" transform="translate(0,-12)"><foreignObject width="318.1000061035156" height="24"><div style="display: table-cell; white-space: nowrap; line-height: 1.5; max-width: 412px; text-align: center;" xmlns="http://www.w3.org/1999/xhtml"><span class="nodeLabel markdown-node-label" style=""><p>+ getReservations() : List&lt;RoomReservation&gt;</p></span></div></foreignObject></g></g><g class="divider" style=""><path d="M-206.15834045410156 -48 C-59.335279151944775 -48, 87.48778215021201 -48, 206.15834045410156 -48 M-206.15834045410156 -48 C-67.21905341094606 -48, 71.72023363220944 -48, 206.15834045410156 -48" stroke="#9370DB" stroke-width="1.3" fill="none" stroke-dasharray="0 0" style=""></path></g><g class="divider" style=""><path d="M-206.15834045410156 48 C-97.15843072181143 48, 11.841479010478707 48, 206.15834045410156 48 M-206.15834045410156 48 C-92.46852160753622 48, 21.221297239029127 48, 206.15834045410156 48" stroke="#9370DB" stroke-width="1.3" fill="none" stroke-dasharray="0 0" style=""></path></g></g><g class="node default " id="classId-JsonReader-97" transform="translate(848.0458602905273, 335)"><g class="basic label-container"><path d="M-69.625 -42 L69.625 -42 L69.625 42 L-69.625 42" stroke="none" stroke-width="0" fill="#ECECFF" style=""></path><path d="M-69.625 -42 C-40.62524646528704 -42, -11.625492930574083 -42, 69.625 -42 M-69.625 -42 C-19.42096921264622 -42, 30.78306157470756 -42, 69.625 -42 M69.625 -42 C69.625 -20.750912216691432, 69.625 0.49817556661713525, 69.625 42 M69.625 -42 C69.625 -23.549535882538038, 69.625 -5.099071765076076, 69.625 42 M69.625 42 C20.940955779465448 42, -27.743088441069105 42, -69.625 42 M69.625 42 C39.62009346132903 42, 9.615186922658054 42, -69.625 42 M-69.625 42 C-69.625 20.869185664452587, -69.625 -0.2616286710948259, -69.625 -42 M-69.625 42 C-69.625 16.83222039328358, -69.625 -8.335559213432838, -69.625 -42" stroke="#9370DB" stroke-width="1.3" fill="none" stroke-dasharray="0 0" style=""></path></g><g class="annotation-group text" transform="translate(0, -18)"></g><g class="label-group text" transform="translate(-57.625, -18)"><g class="label" style="font-weight: bolder" transform="translate(0,-12)"><foreignObject width="115.25" height="24"><div style="display: table-cell; white-space: nowrap; line-height: 1.5; max-width: 198px; text-align: center;" xmlns="http://www.w3.org/1999/xhtml"><span class="nodeLabel markdown-node-label" style=""><p>JsonReader&lt;T&gt;</p></span></div></foreignObject></g></g><g class="members-group text" transform="translate(-57.625, 30)"></g><g class="methods-group text" transform="translate(-57.625, 60)"></g><g class="divider" style=""><path d="M-69.625 6 C-33.503959060054605 6, 2.61708187989079 6, 69.625 6 M-69.625 6 C-24.88076329370965 6, 19.863473412580703 6, 69.625 6" stroke="#9370DB" stroke-width="1.3" fill="none" stroke-dasharray="0 0" style=""></path></g><g class="divider" style=""><path d="M-69.625 24 C-35.056422415039485 24, -0.48784483007896995 24, 69.625 24 M-69.625 24 C-31.515575122508608 24, 6.593849754982784 24, 69.625 24" stroke="#9370DB" stroke-width="1.3" fill="none" stroke-dasharray="0 0" style=""></path></g></g></g></g></g><text text-anchor="middle" x="493.3125" y="-25" class="classDiagramTitleText">Package reservation</text></svg>